<svg height="512pt" viewBox="0 0 512 511" width="512pt" xmlns="http://www.w3.org/2000/svg"><g fill="#6f6571"><path d="m486.914062 188.917969v313.285156c0 5.535156-4.492187 10.027344-10.027343 10.027344h-440.820313c-5.539062 0-10.027344-4.492188-10.027344-10.027344v-313.285156zm0 0"/><path d="m172.207031 132.613281c-4.257812 0-7.710937-3.453125-7.710937-7.710937v-55.003906c0-4.257813 3.453125-7.710938 7.710937-7.710938 4.261719 0 7.710938 3.453125 7.710938 7.710938v55.003906c0 4.257812-3.449219 7.710937-7.710938 7.710937zm0 0"/><path d="m340.820312 132.613281c-4.261718 0-7.710937-3.453125-7.710937-7.710937v-55.003906c0-4.257813 3.449219-7.710938 7.710937-7.710938 4.257813 0 7.710938 3.453125 7.710938 7.710938v55.003906c0 4.257812-3.453125 7.710937-7.710938 7.710937zm0 0"/><path d="m256.476562 271.269531v7.496094h230.4375v-89.847656h-460.875v89.847656h230.4375zm0 0"/></g><path d="m431.394531 188.917969h55.519531v89.847656h-55.519531zm0 0" fill="#5c525f"/><path d="m26.039062 278.765625v223.433594c0 5.539062 4.488282 10.027343 10.027344 10.027343h220.410156v-233.460937zm0 0" fill="#9cbee4"/><path d="m256.476562 278.765625v233.460937h220.410157c5.535156 0 10.027343-4.488281 10.027343-10.027343v-223.433594zm0 0" fill="#d9e6f6"/><path d="m433.453125 278.765625v223.433594c0 5.539062-4.492187 10.027343-10.027344 10.027343h53.460938c5.535156 0 10.027343-4.488281 10.027343-10.027343v-223.433594zm0 0" fill="#c7dcf6"/><path d="m85.539062 188.714844v18.742187c0 20.96875-18.917968 37.96875-42.253906 37.96875-23.335937 0-42.257812-17-42.257812-37.96875v-18.742187zm0 0" fill="#d9e6f6"/><path d="m170.832031 188.714844v18.742187c0 20.96875-18.917969 37.96875-42.253906 37.96875-23.339844 0-42.257813-17-42.257813-37.96875v-18.742187zm0 0" fill="#7fabd5"/><path d="m256.125 188.714844v18.742187c0 20.96875-18.917969 37.96875-42.257812 37.96875-23.335938 0-42.253907-17-42.253907-37.96875v-18.742187zm0 0" fill="#d9e6f6"/><path d="m341.414062 188.714844v18.742187c0 20.96875-18.917968 37.96875-42.253906 37.96875-23.335937 0-42.253906-17-42.253906-37.96875v-18.742187zm0 0" fill="#7fabd5"/><path d="m426.707031 188.714844v18.742187c0 20.96875-18.917969 37.96875-42.253906 37.96875s-42.257813-17-42.257813-37.96875v-18.742187zm0 0" fill="#d9e6f6"/><path d="m512 188.714844v18.742187c0 20.96875-18.917969 37.96875-42.253906 37.96875-23.339844 0-42.257813-17-42.257813-37.96875v-18.742187zm0 0" fill="#7fabd5"/><path d="m0 188.714844h510.972656l-60.847656-74.09375h-387.222656zm0 0" fill="#9cbee4"/><path d="m383.515625 78.636719h-254c-5.378906 0-9.742187-4.359375-9.742187-9.738281v-58.660157c0-5.378906 4.363281-9.738281 9.742187-9.738281h254c5.378906 0 9.738281 4.359375 9.738281 9.738281v58.660157c0 5.378906-4.359375 9.738281-9.738281 9.738281zm0 0" fill="#e46570"/><path d="m407.980469 448.179688h-85.582031l-27.332032-61.300782c-.839844-1.882812.539063-4.003906 2.601563-4.003906h131.484375zm0 0" fill="#e46570"/><path d="m398.90625 483.375h-74.023438c-4.257812 0-7.710937-3.453125-7.710937-7.710938 0-4.257812 3.453125-7.710937 7.710937-7.710937h68.453126l39.085937-118.175781c1.042969-3.15625 3.996094-5.289063 7.320313-5.289063h18.527343c4.257813 0 7.710938 3.453125 7.710938 7.710938 0 4.257812-3.453125 7.710937-7.710938 7.710937h-12.957031l-39.082031 118.175782c-1.046875 3.15625-3.996094 5.289062-7.324219 5.289062zm0 0" fill="#fdedd3"/><path d="m337.835938 512.230469c-7.898438 0-14.328126-6.429688-14.328126-14.328125 0-7.902344 6.429688-14.332032 14.328126-14.332032 7.902343 0 14.328124 6.429688 14.328124 14.332032 0 7.898437-6.425781 14.328125-14.328124 14.328125zm0 0" fill="#6f6571"/><path d="m390.773438 512.230469c-7.898438 0-14.328126-6.429688-14.328126-14.328125 0-7.902344 6.429688-14.332032 14.328126-14.332032 7.902343 0 14.328124 6.429688 14.328124 14.332032 0 7.898437-6.425781 14.328125-14.328124 14.328125zm0 0" fill="#6f6571"/><path d="m329.511719 47.277344h-147.023438c-4.257812 0-7.710937-3.449219-7.710937-7.710938 0-4.257812 3.453125-7.707031 7.710937-7.707031h147.023438c4.257812 0 7.710937 3.449219 7.710937 7.707031 0 4.261719-3.453125 7.710938-7.710937 7.710938zm0 0" fill="#fdedd3"/><path d="m180.070312 387.433594c-2.054687 0-4.109374-.816406-5.625-2.4375l-26.113281-27.847656c-.035156-.042969-.074219-.082032-.113281-.125l-9.421875-10.503907-9.425781 10.503907-22.832032 25.894531c-2.816406 3.191406-7.691406 3.5-10.882812.683593-3.195312-2.816406-3.5-7.6875-.683594-10.882812l22.875-25.945312 15.207032-16.949219c1.464843-1.628907 3.550781-2.5625 5.742187-2.5625 2.1875 0 4.273437.933593 5.738281 2.5625l15.105469 16.839843 26.054687 27.785157c2.914063 3.105469 2.753907 7.988281-.351562 10.898437-1.488281 1.394532-3.382812 2.085938-5.273438 2.085938zm0 0" fill="#6f6571"/><path d="m89.445312 369.59375h98.699219v32.898438h-98.699219zm0 0" fill="#fdedd3"/></svg>